<svg width="23" height="19" viewBox="0 0 23 19" fill="none" xmlns="http://www.w3.org/2000/svg">
<path fill-rule="evenodd" clip-rule="evenodd" d="M8.51456 12.9915C8.51456 13.9489 8.00901 15.5094 6.81165 15.5094C5.61429 15.5094 5.10874 13.9489 5.10874 12.9915C5.10874 12.0342 5.61429 10.4737 6.81165 10.4737C8.00901 10.4737 8.51456 12.0342 8.51456 12.9915ZM17.0291 12.9915C17.0291 13.9489 16.5236 15.5094 15.3262 15.5094C14.1288 15.5094 13.6233 13.9489 13.6233 12.9915C13.6233 12.0342 14.1288 10.4737 15.3262 10.4737C16.5236 10.4737 17.0291 12.0342 17.0291 12.9915ZM19.1578 12.9915C19.1578 10.9851 17.9205 9.21479 15.7519 9.21479C14.8739 9.21479 14.0357 9.37215 13.1577 9.49018C12.4658 9.59509 11.774 9.63443 11.0689 9.63443C10.3638 9.63443 9.67201 9.59509 8.9802 9.49018C8.11544 9.37215 7.26398 9.21479 6.38592 9.21479C4.21737 9.21479 2.9801 10.9851 2.9801 12.9915C2.9801 17.0044 6.70522 17.6207 9.95139 17.6207H12.1865C15.4326 17.6207 19.1578 17.0044 19.1578 12.9915ZM22.1379 10.6835C22.1379 12.1392 21.9915 13.6866 21.3263 15.0242C19.5702 18.5256 14.7408 18.8665 11.2818 18.8665C7.76954 18.8665 2.6475 18.5649 0.824848 15.0242C0.146344 13.6997 0 12.1392 0 10.6835C0 8.76892 0.53216 6.95922 1.80934 5.49048C1.56987 4.76922 1.45014 4.00863 1.45014 3.26114C1.45014 2.27761 1.6763 1.29408 2.12864 0.402344C4.23067 0.402344 5.57438 1.30719 7.17086 2.53989C8.51456 2.22516 9.89818 2.0809 11.2818 2.0809C12.5324 2.0809 13.7962 2.21204 15.0069 2.50054C16.5901 1.28097 17.9338 0.402344 20.0092 0.402344C20.4615 1.29408 20.6877 2.27761 20.6877 3.26114C20.6877 4.00863 20.568 4.75611 20.3285 5.46425C21.6057 6.94611 22.1379 8.76892 22.1379 10.6835Z" fill="white"/>
</svg>
