<svg width="749" height="1367" viewBox="0 0 749 1367" fill="none" xmlns="http://www.w3.org/2000/svg">
<path d="M264.135 1214C238.535 1163.6 253.468 1091 264.135 1061C283.135 1070.67 331.935 1090 375.135 1090C418.335 1090 467.468 1070.67 486.635 1061C507.435 1102.2 495.301 1183.5 486.635 1219L460.635 1188.5L440.135 1303.5L410.635 1240L375.135 1366.5L340.135 1240L308.635 1303.5C301.835 1294.7 292.468 1223.17 288.635 1188.5L264.135 1214Z" fill="#FAAE1C"/>
<path d="M287.109 1169.68C266.99 1133.88 278.726 1082.31 287.109 1061C302.041 1067.87 340.393 1081.6 374.345 1081.6C408.296 1081.6 446.911 1067.87 461.974 1061C478.321 1090.26 468.785 1148.01 461.974 1173.23L441.54 1151.56L425.429 1233.25L402.245 1188.15L374.345 1278L346.838 1188.15L322.082 1233.25C316.738 1227 309.376 1176.19 306.364 1151.56L287.109 1169.68Z" fill="#FFC75A"/>
<path d="M258.597 1057.02L240 1003H504L489.05 1057.02C473.249 1072.35 428.009 1103 373.459 1103C318.908 1103 274.155 1072.35 258.597 1057.02Z" fill="url(#paint0_linear_210_413)"/>
<path d="M218.5 1007L193 960H555L534.5 1007C512.833 1020.33 450.8 1047 376 1047C301.2 1047 239.833 1020.33 218.5 1007Z" fill="url(#paint1_linear_210_413)"/>
<path d="M109.999 537C134.092 309.343 288.166 86.8333 375.499 0.5C462.333 98.5 611.797 284.07 639.499 537C662.5 747 602.5 877.833 586.5 951.5C559.333 966.833 480.299 997.5 375.499 997.5C270.699 997.5 191.166 966.833 164.499 951.5C147.499 889.5 85.4999 768.5 109.999 537Z" fill="url(#paint2_linear_210_413)"/>
<path d="M195 262.5C195 262.5 263 114.5 376.5 1C457.5 82 517.5 180.5 561.5 262.5C522.667 258.333 433.3 250 376.5 250C292 250 195 262.5 195 262.5Z" fill="url(#paint3_linear_210_413)"/>
<path d="M36.4448 1129.5C-54.3553 939.9 45.7777 750 106.444 680C106.444 737.6 142.611 877.833 161.445 939.5C111.845 974.3 57.4448 1080.67 36.4448 1129.5Z" fill="#DD1E23"/>
<path d="M712 1129.5C802.8 939.9 702.667 750 642 680C642 737.6 605.833 877.833 587 939.5C636.6 974.3 691 1080.67 712 1129.5Z" fill="#DD1E23"/>
<circle cx="373" cy="473" r="116" fill="#E11D23"/>
<circle cx="372" cy="472" r="91" fill="#363535"/>
<defs>
<linearGradient id="paint0_linear_210_413" x1="372" y1="1045" x2="372" y2="1103" gradientUnits="userSpaceOnUse">
<stop stop-color="#757171"/>
<stop offset="1" stop-color="#E3E3E3"/>
</linearGradient>
<linearGradient id="paint1_linear_210_413" x1="374" y1="995.5" x2="374" y2="1047" gradientUnits="userSpaceOnUse">
<stop stop-color="#878787"/>
<stop offset="1" stop-color="#E3E3E3"/>
</linearGradient>
<linearGradient id="paint2_linear_210_413" x1="104" y1="588" x2="644" y2="585" gradientUnits="userSpaceOnUse">
<stop stop-color="#C0C0C0"/>
<stop offset="0.859375" stop-color="#F8F8F8"/>
</linearGradient>
<linearGradient id="paint3_linear_210_413" x1="195" y1="263" x2="562" y2="263" gradientUnits="userSpaceOnUse">
<stop stop-color="#AC2728"/>
<stop offset="0.583333" stop-color="#E11C22"/>
</linearGradient>
</defs>
</svg>
