<svg width="729" height="672" viewBox="0 0 729 672" fill="none" xmlns="http://www.w3.org/2000/svg">
<g clip-path="url(#clip0_210_423)">
<path d="M613.994 187.774C614.992 189.539 614.312 191.507 614.674 193.345C612.576 196.818 611.433 200.507 612.098 204.602C612.069 204.776 612.04 204.964 611.982 205.138C607.772 216.916 602.273 227.986 593.577 237.159C591.146 239.706 591.407 241.008 594.735 241.876C595.603 242.108 596.428 242.528 597.296 242.687C612.286 245.277 626.597 250.153 640.792 255.449C637.927 257.779 639.142 259.732 641.255 261.743C647.419 267.604 654.118 272.9 658.401 280.569C668.096 297.903 671.54 316.164 666.852 335.597C665.159 342.629 663.061 349.618 658.416 355.869C657.533 353.076 656.94 350.747 656.057 348.533C652.874 340.43 647.665 334.063 639.735 330.142C638.94 329.751 638.042 329.115 637.203 329.635C636.161 330.287 636.842 331.256 637.232 332.008C639.981 337.406 639.475 343.266 638.824 348.822C637.854 357.142 633.658 364.016 626.93 369.225C624.962 370.744 623.573 370.918 622.488 368.299C617.047 355.232 607.786 345.465 595.849 338.202C591.493 335.554 586.776 333.484 581.871 330.981C581.871 333.036 582.942 333.253 583.564 333.817C592.072 341.443 597.527 350.819 600.363 361.903C603.402 373.783 603.778 385.85 603.952 397.99C603.981 400.479 601.087 403.865 604.169 405.168C605.934 405.92 609.002 403.431 611.548 402.548C624.224 398.164 636.581 399.828 647.028 407.569C659.892 417.091 665.752 430.793 664.131 446.913C663.205 456.188 660.138 464.696 651.181 469.804C647.694 471.801 645.943 471.294 644.554 467.547C641.327 458.85 635.583 451.977 627.972 446.811C622.357 443.006 616.352 439.924 608.683 440.314C612.648 445.162 616.483 449.199 619.565 453.728C628.087 466.215 631.184 480.193 630.012 495.184C629.534 501.232 627.726 506.325 621.316 508.525C617.64 509.784 613.994 511.144 610.391 512.62C598.193 517.597 585.561 520.376 572.35 520.332C570.758 520.332 568.588 521.157 567.705 519.695C566.779 518.133 568.805 516.859 569.586 515.514C582.696 493.245 579.107 481.032 565.245 460.239C566.113 468.545 565.52 476.199 564.102 483.724C562.713 491.089 560.658 498.324 555.565 504.198C554.668 505.24 553.597 506.195 552.078 505.761C550.284 505.255 550.732 503.649 550.66 502.375C550.197 493.635 546.406 488.774 537.68 485.836C536.783 487.066 537.753 488.151 538.013 489.237C540.864 501.145 536.06 513.43 525.15 518.422C512.3 524.311 498.974 526.583 485.011 523.009C484.041 522.763 482.97 521.794 482.073 522.691C481.017 523.747 481.957 525.093 482.478 525.975C484.446 529.39 486.993 532.559 490.798 533.818C508.915 539.808 527.248 542.355 545.812 535.8C548.446 534.874 549.242 535.511 548.764 538C545.422 555.494 539.634 571.772 526.524 584.723C511.707 599.366 493.736 607.469 473.565 611.419C461.758 613.734 449.921 616.122 438.056 612.258C427.942 608.959 419.926 602.911 416.091 592.565C414.586 588.47 413.819 584.028 414.789 579.745C415.57 576.272 419.709 576.909 422.082 575.245C427.667 571.338 433.281 567.605 433.556 559.733C433.686 556.261 432.862 555.088 429.201 556.42C425.656 557.708 422.154 559.849 417.726 558.764C418.985 555.696 420.345 552.86 421.286 549.894C422.27 546.812 421.72 543.628 421.778 539.172C413.921 557.722 399.654 561.802 386.428 558.127C371.105 553.873 362.929 542.124 360.484 526.872C360.021 523.993 360.831 521.794 363.552 520.028C366.431 518.147 368.978 515.658 370.179 511.303C360.629 514.877 351.976 512.793 343.366 510.044C338.114 508.366 333.281 505.718 329.765 501.594C318.059 487.905 318.985 469.76 331.573 456.882C338.794 449.488 348.763 446.638 357.069 441.052C363.031 437.059 369.614 433.904 374.708 428.203C372.306 427.176 370.338 427.596 368.442 427.61C362.293 427.668 356.201 427.451 350.138 426.076C339.749 423.732 330.56 418.87 321.748 413.126L321.401 412.967L321.734 413.14C322.038 415.658 322.515 418.161 322.617 420.694C323.152 433.456 318.305 444.453 310.679 454.234C302.996 464.088 292.577 469.196 280.032 467.908C262.741 466.129 248.922 457.505 237.563 444.149C235.19 448.881 235.639 453.453 238.113 457.548C245.985 470.527 255.549 481.944 269.773 488.369C272.682 489.685 273.26 490.944 272.233 493.766C270.265 499.163 264.824 502.795 258.27 503.33C252.684 503.793 247.721 501.391 242.425 500.552L242.092 500.393L242.411 500.566C242.266 502.028 242.773 503.229 243.858 504.184C253.263 512.533 264.043 517.048 276.776 515.326C284.069 514.342 287.991 516.613 289.148 523.501C289.539 525.845 289.047 528.956 291.68 529.752C294.227 530.519 295.79 527.77 297.468 526.135C298.539 525.093 299.378 523.834 300.348 522.705C302.605 520.101 304.848 517.496 307.814 515.615C310.013 514.226 311.634 514.197 313.645 516.281C324.584 527.553 337.593 530.953 352.569 525.86C356.042 524.673 356.013 525.917 355.231 528.71C353.698 534.151 353.929 539.534 355.506 545.075C357.387 551.659 360.383 557.418 365.288 562.367C359.818 561.701 354.826 560.182 350.355 557.447C343.294 553.15 336.927 547.998 331.573 541.632C330.864 540.792 330.097 539.273 328.752 539.939C327.464 540.575 328.043 542.095 328.318 543.194C329.258 546.985 330.358 550.733 332.485 554.061C339.995 565.854 350.326 574.189 363.638 578.544C366.113 579.354 366.46 580.237 366.026 582.552C364.97 588.297 360.904 591.596 356.476 594.403C344.553 601.97 331.487 603.186 317.972 600.263C314.557 599.525 311.374 597.687 307.38 596.067C307.988 598.527 308.639 600.335 308.856 602.216C309.391 607.006 310.158 611.969 305.528 615.427C302.692 617.54 299.364 618.611 295.862 618.567C286.688 618.466 278.151 616.078 270.381 611.014C258.255 603.114 248.387 593.39 244.393 578.949C242.223 571.092 242.454 570.86 250.442 570.86C252.988 570.86 255.491 571.005 258.024 571.57C266.98 573.595 275.908 572.828 285.806 571.15C279.063 567.909 273.709 564.465 269.353 559.56C264.694 554.322 264.564 548.534 269.382 543.513C271.307 541.501 273.593 539.852 276.14 537.681C271.958 537.305 268.254 537.204 264.636 536.567C257.517 535.308 249.747 535.612 244.596 529.115C242.686 526.699 242.179 529.202 241.355 530.012C233.772 537.421 219.737 536.061 213.457 527.509C207.987 520.028 206.859 511.274 205.47 502.549C205.339 501.71 205.73 500.566 204.601 500.248C203.516 499.944 203.14 501.001 202.619 501.71C194.545 512.953 191.26 525.295 194.067 539.042C194.979 543.513 196.744 547.622 198.958 551.558C200.492 554.264 199.523 555.45 196.614 555.523C184.662 555.841 173.144 553.569 162.943 547.463C151.96 540.908 141.007 533.992 133.439 523.154C132.73 519.015 132.311 514.877 132.47 510.666C133.164 492.854 140.139 482.798 157.69 477.574C162.943 476.011 168.398 475.143 174.128 473.884C172.319 472.625 170.757 472.162 169.194 471.656C162.147 469.37 155.043 469.833 147.909 470.976L147.648 470.715C147.88 469.095 149.168 468.198 150.137 467.055C157.083 458.85 166.372 454.987 176.559 452.816C184.546 451.123 192.577 450.197 200.796 451.514C190.074 444.424 178.715 440.778 165.924 444.221C164.303 444.655 162.567 445.321 161.105 444.438C151.743 438.81 141.875 433.818 134.148 425.888C119.027 410.362 118.449 374.115 142.859 364.218C146.129 362.901 146.693 362.829 146.983 366.49C147.634 374.752 157.054 385.648 164.911 387.37C158.313 373.551 160.006 359.718 164.144 346.015C167.877 333.644 172.262 321.532 186.746 317.336C183.881 315.05 181.045 316.454 178.339 316.656C162.002 317.828 150.224 326.119 142.454 340.198C138.388 347.563 138.634 347.723 130.285 345.494C128.404 344.988 126.508 344.452 124.728 343.7C119.592 341.53 114.715 338.867 110.649 334.989C101.403 326.148 99.6524 316.15 105.484 304.849C109.029 297.976 112.545 291.03 118.969 285.532C113.659 285.329 111.228 286.154 104.861 290.885C102.72 292.477 101.968 292.101 101.013 289.858C94.0526 273.536 104.558 251.759 121.834 247.317C135.103 243.917 148.488 244.351 161.843 247.028C164.216 247.505 166.546 248.171 169.006 248.779C169.035 247.042 168.007 246.478 167.313 245.754C161.872 240.082 159.051 233.542 159.297 225.497C159.47 219.781 159.977 214.124 160.599 208.48C161.38 201.376 161.872 194.054 166.112 187.861C177.717 170.873 194.212 163.624 214.354 164.637C221.198 164.984 228.086 166.388 235.465 169.238C233.194 170.295 231.862 170.931 230.517 171.539C224.787 174.173 220.2 177.993 217.031 183.592C211.359 193.591 211.822 203.662 216.264 213.82C217.624 216.916 217.508 218.32 213.515 218.566C202.055 219.289 192.794 224.846 185.906 233.643C174.881 247.722 173.086 263.726 178.614 280.453C183.895 296.427 197.222 302.881 212.95 308.162C211.084 305.63 209.999 304.067 208.827 302.577C200.897 292.463 196.296 281.089 196.527 268.125C196.658 261.107 199.088 254.856 204.862 250.428C206.902 248.865 208.841 248.055 209.116 252.179C209.724 261.584 215.859 267.748 225.452 268.834C227.941 269.123 231.038 269.658 232.108 266.605C233.034 263.957 230.821 262.264 228.838 260.803C225.38 258.256 222.877 254.899 220.923 251.152C216.582 242.846 220.258 235.249 224.656 228.825C227.464 224.715 232.108 230.113 236.073 230.199C236.377 230.199 236.666 230.243 236.97 230.272C237.129 230.359 237.303 230.46 237.462 230.547L237.187 230.069C236.825 226.51 234.279 223.891 233.136 220.649C230.242 212.503 229.055 204.168 232.21 196.022C235.943 186.385 249.573 181.118 261.004 184.171C262.538 184.576 264.506 186.197 264.926 182.825C266.431 170.859 274.78 165.418 285.227 162.799C298.409 159.5 311.663 160.311 324.758 163.957C326.552 164.449 328.347 165.491 330.372 164.883C330.372 164.507 330.459 164.174 330.358 163.928C330.17 163.537 329.924 163.118 329.591 162.843C318.58 153.437 306.15 146.391 291.492 146.651C277.167 146.912 262.784 148.981 250.21 157.098C248.676 158.097 247.967 157.72 247.924 156.042C247.837 153.047 247.736 150.08 248.314 147.085C250.456 136.016 257.98 128.506 265.866 121.618C285.487 104.486 308.219 106.223 329.49 121.04C332.109 122.863 332.818 123.774 329.678 125.974C324.671 129.49 322.689 135.944 324.324 141.167C336.696 130.821 343.916 128.303 360.441 128.275C369.47 128.26 377.963 130.3 386.023 134.294C387.065 134.815 388.266 136.001 389.308 135.22C390.682 134.193 389.394 132.717 389.076 131.53C387.644 126.176 384.33 122.327 379.439 119.694C375.981 117.827 372.204 117.133 367.806 116.294C369.976 113.805 371.857 111.794 374.23 110.202C391.608 98.5248 410.737 95.8768 431.009 99.147C446.478 101.636 460.152 108.393 472.451 117.798C481.191 124.483 488.758 132.427 493.345 142.686C494.141 144.481 495.906 146.68 494.199 148.503C492.781 150.037 490.495 149.082 488.657 148.445C482.276 146.246 475.996 143.772 469.557 141.818C459.139 138.649 449.111 140.024 440.805 147.1C436.812 150.5 433.035 151.846 427.956 151.99C413.848 152.381 402.909 158.343 396.673 171.554C393.721 177.819 393.75 189.872 399.089 193.359C399.234 181.769 403.908 172.783 414.716 168.226C425.699 163.595 435.365 167.372 443.974 175.041C447.563 160.455 453.481 159.573 462.539 157.692C476.372 154.827 490.987 161.15 493.374 175.648C493.736 177.877 494.937 178.759 497.18 179.237C502.345 180.337 507.41 182.145 511.259 185.85C521.301 195.53 526.249 208.046 530.156 221.069C530.04 221.185 529.91 221.301 529.809 221.431C528.637 221.214 527.392 221.141 526.293 220.736C520.331 218.508 514.456 219.231 508.683 221.286C501.072 223.977 496.138 231.357 497.093 238.375C497.237 238.389 497.44 238.491 497.527 238.418C498.12 237.955 498.728 237.507 499.249 236.986C505.717 230.373 513.675 229.244 521.633 232.674C529.476 236.045 533.687 242.774 533.687 251.644C533.687 257.055 533.629 262.452 533.629 267.864C533.629 268.703 533.267 269.818 534.323 270.237C535.307 270.628 535.973 269.774 536.61 269.181C542.861 263.277 546.319 256.346 544.684 247.491C543.873 243.121 544.525 242.513 548.591 243.83C550.718 244.524 552.801 245.393 554.87 246.29C563.292 249.965 568.921 256.838 574.665 263.596C575.577 264.666 576.503 266.504 578.181 265.882C580.077 265.173 579.599 263.089 579.556 261.512C579.324 253.322 576.271 245.942 572.147 239.113C566.012 228.926 552.266 223.63 541.703 226.871C535.568 228.752 531.849 225.251 533.079 218.739C534.526 211.027 535.105 203.315 533.585 195.53C530.605 180.192 522.516 168.833 507.96 162.539C502.577 160.209 502.23 158.444 506.57 154.132C508.336 152.381 510.506 151.383 512.894 150.92C524.209 148.764 535.018 149.444 544.51 156.896C546.029 158.097 547.23 158.516 548.75 156.925C554.422 150.963 561.7 150.761 568.834 152.453C584.085 156.056 595.212 165.418 603.416 178.615C606.224 183.144 607.685 188.281 610 193.099C612.243 191.594 611.534 188.584 613.994 187.861V187.774ZM306.468 336.523L306.801 336.74L306.468 336.538L305.673 335.554C305.195 334.454 304.79 333.325 304.24 332.283C298.799 322.024 295.529 311.461 297.367 299.538C299.971 282.594 317.856 270.744 334.511 275.417C335.466 275.692 336.522 276.618 337.419 275.663C338.461 274.564 337.477 273.406 337.043 272.35C334.467 266.099 329.171 263.856 323.022 263.711C319.303 263.625 318.797 262.033 319.043 259.009C319.694 251.036 326.726 244.134 334.713 243.685C337.766 243.512 340.747 243.888 343.583 244.857C345.812 245.624 346.969 245.19 347.461 242.86C350.818 227.045 371.872 225.294 381.48 237.029C386.038 242.6 385.589 246.724 379.801 250.746C373.738 254.972 369.817 260.615 368.746 268.038C368.601 269.051 368.312 270.367 369.209 271.004C370.352 271.814 371.061 270.512 371.77 269.832C381.147 260.861 392.607 257.403 405.195 258.3C412.879 258.849 420.678 260.499 422.472 270.223C422.631 271.062 422.805 272.133 423.905 272.292C425.25 272.494 425.598 271.279 426.09 270.396C426.828 269.065 427.175 267.647 427.276 266.099C427.884 256.013 422.357 247.954 412.691 244.973C408.35 243.642 408.089 242.745 411.331 239.33C413.573 236.971 416.352 235.539 419.709 235.539C422.559 235.539 425.453 235.264 428.26 235.64C441.543 237.434 453.568 241.876 462.235 252.83C469.919 262.539 475.692 273.102 476.661 285.85C478.34 279.208 478.528 272.451 477.342 265.911C472.48 238.997 449.632 220.36 419.057 224.035C413.356 224.715 407.655 226.119 402.837 230.069C396.745 235.061 396.557 234.815 391.276 229.027C381.726 218.551 369.556 214.341 355.738 214.977C348.503 215.31 341.398 217.524 337.752 224.325C335.856 227.855 333.975 228.593 330.532 228.391C319.65 227.725 312.372 233.397 307.221 242.311C301.722 251.832 299.103 262.235 298.394 273.16C298.307 274.52 298.467 276.068 297.049 276.749C294.039 278.196 293.012 281.176 291.593 283.723C286.891 292.202 282.941 301.101 284.46 311.056C286.341 323.428 295.544 330.012 305.499 335.727C305.832 335.988 306.165 336.248 306.497 336.509L306.468 336.523ZM421.792 323.052L422.226 323.211L421.865 322.965C417.046 309.913 410.274 305.124 396.571 305.008C391.319 304.965 386.11 305.239 380.886 305.847C360.223 308.235 343.728 330.533 347.982 350.776C349.603 358.503 354.001 364.464 360.73 368.834C361.019 368.284 361.15 368.139 361.135 368.009C361.063 367.271 360.976 366.548 360.846 365.824C359.08 356.057 358.531 346.493 364.478 337.681C372.407 325.917 395.255 317.047 410.159 319.767C414.181 320.505 417.784 322.386 421.792 323.037V323.052ZM541.168 413.14C536.06 427.596 524.166 432.993 510.506 432.617C491.999 432.11 480.525 421.721 477.891 401.391C467.3 429.462 449.415 443.107 419.781 436.9C424.44 448.736 448.778 457.751 458.502 454.726C463.523 453.164 463.812 453.511 462.25 458.662C460.036 465.984 455.029 470.889 448.069 473.928C447.085 474.362 445.363 474.232 445.523 475.925C445.653 477.328 447.114 477.589 448.156 478.095C451.571 479.73 454.537 477.936 457.59 476.822C458.661 476.431 459.79 475.042 460.817 475.968C462.134 477.14 460.774 478.486 460.18 479.585C456.389 486.618 449.516 489.888 442.889 493.332C434.96 497.441 426.423 499.235 417.379 498.787C417.726 500.277 418.739 500.407 419.492 500.74C432.702 506.774 446.174 506.456 459.79 502.303C471.235 498.816 481.422 492.652 491.797 486.994C497.252 484.028 502.418 482.233 508.423 484.491C510.593 485.301 511.114 484.274 511.042 482.378C510.998 481.177 511.128 479.962 510.984 478.775C509.464 467.286 520.476 456.564 532.645 458.879C534.208 459.183 535.568 458.937 534.613 456.824C532.573 452.281 534.193 448.331 536.682 444.626C543.237 434.859 547.433 424.788 541.153 413.155L541.168 413.14ZM527.74 298.28C527.783 302.114 529.693 305.457 530.301 309.103C532.573 322.849 530.156 333.369 514.963 338.853C509.768 340.719 504.458 341.356 499.162 341.761C495.385 342.05 494.792 343.425 494.778 346.681C494.72 357.678 490.422 366.953 483.043 375.027C478.456 380.048 472.813 383.463 466.88 386.588C479.526 387.268 490.364 384.157 498.207 373.551C501.361 369.283 505.89 367.098 511.447 367.112C517.77 367.141 523.182 369.051 527.855 374.55C529.823 364.638 536.812 360.832 545.827 358.676C533.368 351.933 533.672 347.39 535.018 338.144C535.64 333.875 537.926 330.258 539.981 326.626C545.494 316.859 537.29 299.683 527.754 298.294L527.74 298.28ZM241.485 417.365C238.967 415.296 237.1 413.661 235.133 412.156C220.185 400.798 215.844 385.17 223.108 367.879C228.983 353.887 240.501 345.726 253.524 339.301C258.024 337.087 262.683 335.192 267.27 333.137L267.14 331.98C260.585 330.431 254.276 327.639 247.2 328.579C239.213 329.65 231.747 332.37 224.845 336.422C209.579 345.364 200.868 358.43 202.981 376.503C204.775 391.841 212.618 404.328 224.584 414.197C229.475 418.219 234.959 417.901 241.485 417.365V417.365ZM383.361 401.449C382.681 403.764 383.057 405.848 384.041 407.917C387.817 415.991 394.98 418.538 403.025 419.377C408.075 419.912 412.647 418.436 415.7 414.124C417.321 411.838 418.768 412.431 420.62 413.488C423.818 415.325 427.233 416.15 430.894 415.354C441.109 413.126 446.97 407.049 447.679 396.558C448.055 391.074 446.724 385.547 441.703 380.873C441.833 386.53 440.69 391.175 439.807 395.863C438.91 400.653 436.349 404.343 431.313 405.225C423.876 406.528 416.163 408.061 411.837 399.09C401.896 411.491 392.245 411.853 383.375 401.449H383.361Z" fill="#C6C7C9"/>
<path d="M321.793 413.126C330.605 418.87 339.793 423.732 350.182 426.076C356.245 427.451 362.337 427.653 368.486 427.61C370.382 427.595 372.35 427.176 374.752 428.203C369.659 433.904 363.075 437.058 357.113 441.052C348.793 446.623 338.823 449.488 331.618 456.882C319.043 469.76 318.117 487.905 329.809 501.593C333.339 505.717 338.158 508.365 343.41 510.044C352.02 512.808 360.673 514.891 370.223 511.303C369.036 515.658 366.49 518.147 363.596 520.028C360.875 521.793 360.065 523.993 360.528 526.872C362.988 542.123 371.149 553.873 386.472 558.127C399.698 561.802 413.965 557.722 421.822 539.171C421.764 543.628 422.314 546.811 421.33 549.893C420.389 552.86 419.015 555.681 417.77 558.763C422.198 559.849 425.7 557.707 429.245 556.419C432.906 555.103 433.716 556.26 433.6 559.733C433.325 567.604 427.711 571.338 422.126 575.244C419.738 576.908 415.614 576.272 414.833 579.745C413.864 584.028 414.616 588.484 416.135 592.565C419.97 602.925 427.986 608.973 438.1 612.258C449.951 616.121 461.802 613.734 473.609 611.419C493.765 607.469 511.737 599.38 526.568 584.722C539.678 571.772 545.451 555.493 548.808 537.999C549.286 535.496 548.49 534.874 545.857 535.8C527.292 542.34 508.959 539.808 490.843 533.818C487.037 532.559 484.505 529.39 482.522 525.975C482.002 525.078 481.061 523.747 482.117 522.69C483.014 521.793 484.085 522.763 485.055 523.009C499.018 526.583 512.345 524.297 525.194 518.422C536.104 513.43 540.908 501.145 538.057 489.236C537.797 488.151 536.827 487.066 537.725 485.836C546.45 488.788 550.241 493.635 550.704 502.375C550.776 503.648 550.328 505.254 552.122 505.761C553.656 506.195 554.712 505.225 555.609 504.198C560.703 498.323 562.757 491.074 564.146 483.723C565.564 476.199 566.143 468.545 565.289 460.239C579.166 481.032 582.74 493.244 569.63 515.513C568.835 516.859 566.809 518.132 567.749 519.695C568.632 521.157 570.802 520.332 572.394 520.332C585.59 520.361 598.237 517.597 610.435 512.619C614.038 511.144 617.684 509.783 621.36 508.525C627.77 506.325 629.578 501.217 630.056 495.183C631.228 480.193 628.146 466.215 619.609 453.728C616.512 449.199 612.692 445.161 608.728 440.314C616.411 439.923 622.416 443.006 628.016 446.811C635.627 451.977 641.371 458.85 644.598 467.546C645.987 471.294 647.738 471.8 651.225 469.803C660.167 464.696 663.235 456.187 664.176 446.912C665.796 430.793 659.936 417.09 647.072 407.569C636.625 399.828 624.268 398.164 611.593 402.548C609.06 403.431 605.978 405.92 604.213 405.167C601.131 403.865 604.025 400.479 603.996 397.99C603.822 385.85 603.461 373.782 600.407 361.903C597.571 350.804 592.116 341.442 583.608 333.817C582.986 333.253 581.901 333.035 581.915 330.981C586.82 333.484 591.538 335.553 595.893 338.201C607.83 345.465 617.091 355.232 622.532 368.298C623.617 370.917 625.006 370.744 626.974 369.224C633.702 364.015 637.913 357.142 638.868 348.822C639.505 343.266 640.026 337.405 637.276 332.008C636.886 331.256 636.206 330.286 637.247 329.635C638.087 329.114 638.984 329.751 639.78 330.142C647.695 334.063 652.904 340.415 656.101 348.533C656.97 350.746 657.563 353.076 658.46 355.869C663.09 349.632 665.203 342.629 666.896 335.597C671.584 316.164 668.14 297.903 658.446 280.568C654.163 272.914 647.463 267.603 641.299 261.743C639.172 259.717 637.971 257.764 640.836 255.449C644.077 256.664 647.318 257.88 650.56 259.095C679.933 276.256 689.425 298.54 686.531 327.378C684.708 345.552 678.906 362.206 666.795 376.271C663.047 380.626 658.88 384.548 654.061 387.63C650.863 389.67 651.515 391.074 654.148 392.694C655.942 393.794 657.722 394.923 659.603 395.834C692.565 411.939 691.639 446.551 680.15 466.823C675.882 474.347 669.587 479.44 660.804 480.916C658.952 481.235 657.867 481.538 658.446 483.998C664.986 511.824 646.016 542.702 605.269 541.544C603.012 541.487 600.769 541.241 598.526 541.081C597.166 539.692 595.922 538.173 593.65 538.405C589.772 538.795 586.357 537.102 582.812 535.959C576.605 533.948 570.904 530.808 564.884 527.755C566.129 542.471 563.582 557.273 558.431 571.222C555.392 579.47 550.371 586.531 546.276 594.142C506.499 644.077 437.493 647.998 392.521 602.853C392 602.332 391.725 601.55 391.03 600.393C385.156 609.35 379.136 616.917 371.8 623.429C338.115 653.338 285.445 653.482 251.774 623.66C251.325 623.27 250.978 622.778 250.587 622.329C250.905 619.956 250.167 617.93 248.605 616.136C244.683 611.636 240.762 607.136 236.913 602.578C228.246 592.319 222.226 580.888 221.865 567.112C221.792 564.276 221.083 563.292 218.131 564.363C215.194 565.42 212.126 566.215 209.059 566.794C198.409 568.791 187.875 571.902 176.835 568.328C172.986 567.084 170.135 563.784 165.91 563.64C159.746 559.762 153.379 556.202 148.199 550.935C141.977 544.627 136.768 537.652 133.57 529.318C135.393 527.248 132.601 525.194 133.57 523.124C141.152 533.962 152.091 540.879 163.074 547.434C173.275 553.525 184.808 555.797 196.745 555.493C199.654 555.421 200.623 554.234 199.089 551.529C196.861 547.593 195.11 543.469 194.198 539.012C191.391 525.266 194.676 512.923 202.75 501.68C203.256 500.971 203.647 499.915 204.732 500.219C205.861 500.537 205.47 501.695 205.601 502.52C206.99 511.245 208.104 519.999 213.588 527.48C219.853 536.046 233.903 537.406 241.486 529.983C242.31 529.173 242.817 526.67 244.727 529.086C249.878 535.583 257.663 535.294 264.767 536.538C268.385 537.175 272.089 537.261 276.271 537.652C273.724 539.823 271.438 541.487 269.513 543.483C264.695 548.519 264.84 554.292 269.485 559.53C273.825 564.421 279.179 567.879 285.937 571.121C276.025 572.799 267.097 573.566 258.155 571.54C255.622 570.961 253.119 570.831 250.573 570.831C242.585 570.831 242.354 571.063 244.524 578.92C248.518 593.361 258.386 603.084 270.512 610.985C278.282 616.049 286.805 618.437 295.993 618.538C299.495 618.581 302.823 617.511 305.659 615.398C310.289 611.94 309.537 606.977 308.987 602.187C308.77 600.321 308.119 598.497 307.511 596.038C311.505 597.658 314.688 599.51 318.103 600.234C331.618 603.157 344.684 601.941 356.607 594.373C361.035 591.566 365.086 588.253 366.157 582.523C366.591 580.193 366.244 579.325 363.769 578.515C350.457 574.159 340.14 565.825 332.616 554.032C330.503 550.704 329.389 546.956 328.449 543.165C328.174 542.051 327.595 540.546 328.883 539.909C330.228 539.244 330.995 540.749 331.704 541.602C337.058 547.969 343.425 553.12 350.486 557.418C354.972 560.138 359.949 561.672 365.419 562.337C360.528 557.389 357.518 551.63 355.637 545.046C354.06 539.49 353.829 534.121 355.362 528.681C356.144 525.888 356.187 524.644 352.7 525.83C337.724 530.924 324.701 527.523 313.776 516.251C311.765 514.182 310.13 514.197 307.945 515.586C304.979 517.467 302.736 520.071 300.479 522.676C299.495 523.805 298.655 525.078 297.599 526.105C295.921 527.74 294.344 530.49 291.811 529.723C289.178 528.927 289.684 525.816 289.279 523.472C288.122 516.584 284.186 514.312 276.907 515.296C264.189 517.018 253.394 512.504 243.989 504.155C242.918 503.2 242.397 501.999 242.542 500.537C247.838 501.348 252.801 503.764 258.386 503.301C264.941 502.751 270.382 499.134 272.35 493.736C273.377 490.915 272.813 489.656 269.89 488.339C255.666 481.915 246.101 470.498 238.23 457.519C235.741 453.424 235.293 448.851 237.68 444.12C249.039 457.461 262.857 466.099 280.149 467.879C292.694 469.167 303.112 464.073 310.796 454.205C318.407 444.438 323.269 433.427 322.733 420.664C322.632 418.147 322.154 415.629 321.85 413.111H321.865L321.793 413.126Z" fill="#A0ACB6"/>
<path d="M133.512 523.139C132.542 525.208 135.32 527.263 133.512 529.332C124.381 510.97 121.343 492.174 129.75 472.697C132.586 466.128 135.002 459.269 140.833 454.451C141.919 453.554 142.888 452.353 140.616 451.051C123.846 441.37 113.616 426.814 109.535 408.032C106.945 396.109 107.452 384.171 110.881 372.408C111.764 369.383 112.762 366.403 114.73 363.885C113.992 362.51 112.632 362.901 111.532 362.698C90.1893 358.82 76.9928 338.143 82.7663 317.234C84.3001 311.678 84.3869 306.614 80.6682 301.925C77.89 298.438 78.9607 293.765 76.9784 290.031C76.66 265.418 91.4626 250.124 109.694 236.768C107.249 233.889 104.066 232.268 100.116 232.181C99.4644 231.125 98.3936 231.154 97.3518 231.067C89.3934 230.344 83.0701 233.353 78.0202 239.402C77.4269 240.125 77.2533 241.702 75.8642 241.138C74.75 240.689 74.9092 239.358 74.9381 238.331C75.025 234.468 76.7179 231.299 79.7276 228.665C69.8882 222.921 59.9041 222.241 49.5872 225.583C44.1899 227.334 38.7059 228.39 32.7589 229.07C33.5257 224.758 36.6367 223.384 39.7477 221.98C40.5146 221.633 41.8169 221.589 41.6722 220.533C41.5709 219.839 40.6449 219.057 39.9069 218.695C28.4469 213.11 16.7408 211.027 4.58627 216.539C2.95119 216.294 1.67785 216.945 0.636029 218.16C0.447922 218.131 0.361104 218.03 0.375574 217.842C0.462392 217.364 0.534741 216.901 0.621559 216.424C4.91907 205.47 16.3936 200.218 28.852 203.546C33.5402 204.79 37.9824 206.743 41.6722 209.869C45.0581 212.734 48.5309 213.515 52.8718 212.763C59.3253 211.634 65.7354 212.401 71.9284 214.644C74.9381 215.729 78.107 217.031 79.7132 219.723C81.7823 223.167 84.1698 222.501 87.2085 221.864C99.2328 219.347 110.461 221.445 120.735 228.246C121.545 228.781 123.151 228.926 122.688 230.604C121.053 232.297 118.145 232.123 116.09 235.032C119.49 234.106 122.5 234.439 122.703 230.633C124.685 230.749 126.595 230.908 128.621 230.271C133.512 228.737 138.605 227.971 143.727 228.173C147.475 228.318 148.444 227.768 147.359 223.601C142.005 203.054 145.579 183.983 158.342 166.923C174.967 144.726 203.27 135.769 230.343 143.901C232.673 144.596 233.946 145.435 234.814 141.789C246.853 91.1447 304.341 72.8839 343.598 107.076C343.916 107.351 344.278 107.582 345.074 108.161C345.407 102.692 346.694 97.7574 348.272 92.8666C349.458 89.1913 353.567 86.5868 353.842 83.4902C354.132 80.278 351.165 76.6605 351.267 72.8116C351.527 61.612 352.989 50.6439 358.878 40.79C360.513 38.0553 360.6 36.0584 358.806 33.1645C352.96 23.7447 354.913 11.7493 363.089 3.96455C366.2 0.998248 369.759 -0.969636 374.071 0.549686C378.311 2.04007 380.018 5.68644 380.857 9.91161C381.523 13.2541 379.497 16.9873 380.843 19.6063C382.189 22.2254 386.674 21.8781 389.264 24.0775C395.023 28.9827 397.469 34.9732 396.051 42.483C395.834 43.6406 394.604 45.1744 396.543 45.9847C405.601 49.7613 407.12 57.9367 408.234 66.2278C408.784 70.2794 408.422 74.4322 406.99 78.2377C405.557 82.0433 407.134 81.9275 410.101 81.6671C425.873 80.249 441.312 82.159 456.274 87.209C475.374 93.6625 490.278 105.962 502.519 121.676C504.849 124.671 506.556 125.713 510.81 124.425C525.193 120.07 538.1 123.485 548.764 134.236C550.558 136.044 551.962 136.71 554.538 136.03C584.939 127.97 601.058 145.377 608.929 164.81C611.881 172.117 615.166 179.511 614.066 187.788C611.606 188.512 612.315 191.507 610.073 193.026C607.757 188.208 606.296 183.071 603.489 178.542C595.299 165.346 584.157 155.969 568.906 152.381C561.773 150.702 554.494 150.89 548.822 156.852C547.303 158.443 546.102 158.024 544.582 156.823C535.09 149.371 524.281 148.691 512.966 150.847C510.564 151.31 508.408 152.308 506.643 154.059C502.302 158.371 502.649 160.136 508.032 162.466C522.588 168.76 530.677 180.119 533.658 195.457C535.177 203.256 534.598 210.969 533.151 218.667C531.936 225.178 535.64 228.68 541.775 226.799C552.324 223.557 566.07 228.853 572.22 239.04C576.344 245.87 579.397 253.249 579.628 261.439C579.672 263.016 580.149 265.114 578.254 265.809C576.561 266.446 575.649 264.608 574.737 263.523C568.993 256.765 563.364 249.892 554.943 246.217C552.888 245.32 550.804 244.452 548.663 243.757C544.582 242.44 543.946 243.048 544.756 247.418C546.391 256.288 542.933 263.219 536.682 269.108C536.045 269.701 535.38 270.57 534.396 270.164C533.325 269.73 533.701 268.631 533.701 267.791C533.701 262.38 533.759 256.982 533.759 251.571C533.759 242.701 529.548 235.972 521.706 232.601C513.747 229.172 505.789 230.3 499.321 236.913C498.8 237.448 498.193 237.897 497.599 238.345C497.512 238.403 497.31 238.316 497.165 238.302C496.21 231.284 501.144 223.905 508.755 221.213C514.543 219.173 520.404 218.435 526.365 220.663C527.465 221.083 528.709 221.141 529.881 221.358C530.084 221.43 530.272 221.503 530.46 221.589L530.229 221.011C526.322 207.988 521.373 195.472 511.331 185.791C507.482 182.087 502.418 180.278 497.252 179.179C495.009 178.701 493.808 177.818 493.446 175.59C491.073 161.106 476.444 154.783 462.611 157.633C453.553 159.514 447.635 160.397 444.047 174.982C435.452 167.299 425.771 163.537 414.789 168.167C403.98 172.725 399.306 181.711 399.162 193.301C393.822 189.814 393.793 177.746 396.745 171.495C402.982 158.27 413.921 152.323 428.029 151.932C433.093 151.787 436.87 150.456 440.878 147.041C449.183 139.966 459.211 138.577 469.629 141.76C476.068 143.728 482.363 146.202 488.729 148.387C490.567 149.024 492.839 149.979 494.271 148.445C495.964 146.622 494.213 144.422 493.417 142.628C488.845 132.355 481.277 124.411 472.523 117.74C460.224 108.335 446.55 101.577 431.082 99.0886C410.824 95.8329 391.681 98.4664 374.303 110.144C371.93 111.735 370.049 113.746 367.878 116.235C372.277 117.089 376.039 117.769 379.512 119.636C384.402 122.284 387.716 126.118 389.149 131.472C389.467 132.658 390.755 134.134 389.38 135.162C388.338 135.943 387.137 134.757 386.095 134.236C378.036 130.227 369.542 128.187 360.513 128.216C343.988 128.245 336.768 130.748 324.396 141.109C322.776 135.885 324.758 129.432 329.75 125.916C332.876 123.716 332.167 122.79 329.562 120.981C308.292 106.164 285.56 104.428 265.939 121.56C258.053 128.448 250.528 135.958 248.387 147.027C247.808 150.022 247.924 153.003 247.996 155.984C248.04 157.662 248.749 158.038 250.282 157.04C262.857 148.937 277.24 146.868 291.565 146.593C306.222 146.318 318.652 153.379 329.663 162.784C329.996 163.059 330.242 163.479 330.43 163.87C330.546 164.101 330.445 164.434 330.445 164.825C328.419 165.447 326.625 164.405 324.831 163.899C311.735 160.252 298.481 159.456 285.299 162.741C274.852 165.346 266.489 170.786 264.998 182.767C264.579 186.139 262.596 184.518 261.077 184.113C249.631 181.06 236.015 186.327 232.282 195.964C229.128 204.11 230.329 212.445 233.208 220.591C234.366 223.832 236.912 226.451 237.26 230.011L237.043 230.213C236.739 230.184 236.449 230.156 236.146 230.141C232.181 230.054 227.55 224.657 224.729 228.766C220.33 235.191 216.669 242.773 220.996 251.093C222.949 254.841 225.467 258.198 228.911 260.745C230.893 262.206 233.121 263.899 232.181 266.547C231.11 269.6 228.014 269.065 225.525 268.775C215.931 267.676 209.796 261.526 209.188 252.121C208.928 247.997 206.975 248.807 204.934 250.37C199.146 254.797 196.715 261.048 196.6 268.066C196.368 281.031 200.97 292.404 208.899 302.519C210.071 304.009 211.156 305.572 213.023 308.104C197.28 302.823 183.968 296.369 178.686 280.394C173.159 263.667 174.953 247.664 185.979 233.585C192.867 224.787 202.127 219.245 213.587 218.507C217.581 218.247 217.697 216.858 216.336 213.761C211.894 203.604 211.431 193.533 217.103 183.534C220.272 177.934 224.859 174.114 230.589 171.481C231.935 170.859 233.266 170.236 235.538 169.18C228.158 166.33 221.271 164.911 214.426 164.579C194.285 163.566 177.804 170.815 166.184 187.803C161.945 194.01 161.453 201.317 160.671 208.422C160.049 214.065 159.543 219.737 159.369 225.438C159.123 233.498 161.945 240.038 167.385 245.696C168.08 246.42 169.107 246.984 169.078 248.72C166.618 248.112 164.289 247.432 161.916 246.969C148.56 244.292 135.161 243.858 121.907 247.259C104.63 251.687 94.125 273.478 101.085 289.8C102.04 292.043 102.792 292.419 104.934 290.827C111.301 286.096 113.732 285.271 119.042 285.473C112.617 290.972 109.101 297.917 105.556 304.79C99.7248 316.091 101.476 326.09 110.722 334.931C114.788 338.809 119.664 341.471 124.801 343.642C126.595 344.394 128.476 344.944 130.357 345.436C138.706 347.664 138.46 347.505 142.526 340.14C150.297 326.047 162.089 317.755 178.411 316.598C181.132 316.41 183.953 314.992 186.818 317.278C172.334 321.474 167.95 333.585 164.216 345.957C160.078 359.66 158.4 373.493 164.983 387.311C157.126 385.589 147.692 374.694 147.055 366.432C146.766 362.771 146.202 362.843 142.931 364.16C118.521 374.043 119.1 410.289 134.221 425.83C141.948 433.774 151.816 438.751 161.178 444.38C162.639 445.263 164.39 444.597 165.996 444.163C178.787 440.719 190.146 444.366 200.868 451.456C192.664 450.139 184.619 451.065 176.631 452.758C166.43 454.928 157.155 458.792 150.21 466.996C149.255 468.125 147.952 469.022 147.721 470.657C147.62 470.758 147.504 470.86 147.432 470.975C147.432 470.99 147.605 471.192 147.634 471.178C147.764 471.12 147.866 471.004 147.967 470.903C155.101 469.774 162.205 469.311 169.252 471.583C170.829 472.09 172.377 472.553 174.186 473.811C168.456 475.07 163.001 475.939 157.748 477.501C140.197 482.71 133.222 492.781 132.528 510.594C132.369 514.804 132.774 518.957 133.497 523.081L133.512 523.139ZM373.232 70.3662C372.306 71.1476 371.901 71.5527 371.452 71.8566C363.58 77.0367 359.732 85.762 361.642 94.7477C361.916 96.021 361.497 99.5806 364.955 97.3812C375.315 90.7975 386.428 86.0514 398.438 83.4613C400.305 83.0561 400.927 82.5497 400.363 80.495C398.641 74.2875 397.367 67.9497 395.515 61.8001C393.518 55.173 389.38 50.6439 382.116 49.3706C379.917 48.9944 377.833 50.7742 375.547 49.3417C377.862 45.5795 381.407 44.2483 385.329 43.5972C389.959 42.8447 390.335 41.9331 387.991 37.8382C383.115 29.3445 375.272 25.7126 365.722 24.3813C368.703 22.4279 368.703 22.3845 373.102 21.936C374.549 21.7913 375.735 21.6755 375.909 19.8089C376.242 16.3217 372.494 11.3441 368.688 10.418C364.825 9.47752 360.759 11.7203 359.312 15.5982C356.982 21.8347 360.108 28.7657 366.388 31.0374C368.5 31.8043 369.108 32.7304 367.502 34.568C366.72 35.4652 366.04 36.4636 365.331 37.4331C358.458 46.9686 356.201 57.4447 358.704 68.9626C359.341 71.9 360.426 72.7103 363.306 71.2054C366.113 69.744 369.238 69.1941 373.232 70.3517V70.3662Z" fill="#F6F6F7"/>
<path d="M716.542 171.669C718.915 171.293 720.897 172.292 722.807 173.507C723.647 183.708 719.711 191.826 711.998 198.294C710.392 199.639 708.931 201.361 707.064 202.143C703.418 203.662 704.952 199.147 703.085 198.221C701.928 197.643 700.915 196.138 699.612 196.456C697.862 196.89 698.628 198.728 698.585 199.958C698.498 202.91 697.514 205.586 696.024 208.017C692.522 213.675 686.879 217.003 681.54 220.563C678.718 222.444 676.244 225.41 672.062 225.077C673.306 217.698 670.861 211.678 665.782 206.339C666.086 216.41 659.806 222.849 653.772 229.273C650.705 232.544 646.928 235.105 642.5 236.306C640.619 236.812 638.825 236.841 637.812 234.265C634.788 226.683 629.246 222.545 620.825 222.994C618.119 223.138 617.005 222.342 618.625 219.723C621.592 214.919 622.402 209.681 621.866 204.154C631.793 201.969 641.473 202.852 650.98 206.368C652.528 206.947 654.308 209.16 655.682 207.554C657.086 205.919 656.03 203.517 654.843 201.709C653.946 200.348 653.049 198.699 651.718 197.99C647.492 195.733 649.562 194.242 652.195 192.954C658.808 189.713 665.637 187.051 673.003 186.125C679.644 185.285 685.808 186.646 691.22 190.827C692.233 191.609 692.971 193.374 694.476 192.781C696.14 192.13 696.501 190.277 696.675 188.628C696.849 186.978 696.82 185.314 695.995 183.795C695.257 182.449 695.431 181.538 697.08 181.219C705.039 179.657 712.621 175.128 721.158 178.268C720.622 175.214 717.497 174.23 716.528 171.684L716.542 171.669Z" fill="#C6C7C9"/>
<path d="M150.297 668.328C148.445 667.576 146.911 666.476 146.13 664.537C146.926 664.118 147.693 663.626 148.517 663.264C155.68 660.182 159.211 654.799 158.646 646.956C158.299 642.124 159.153 637.377 159.731 632.646C161.005 622.445 165.375 614.356 175.851 610.84C177.153 610.406 178.34 609.653 180.539 608.568C176.69 607.57 173.695 607.28 171.119 608.062C166.127 609.567 165.534 606.6 164.926 603.084C163.971 597.528 167.169 593.332 169.47 588.831L169.426 588.875L170.381 587.819C172.783 586.69 175.257 584.621 177.848 585.518C183.245 587.37 190.147 584.954 194.097 591.089C194.415 591.595 195.747 591.508 196.615 591.581C206.44 592.449 213.544 597.412 218.262 605.978C214.297 610.652 210.462 615.441 206.338 619.97C203.184 623.429 199.161 625.411 194.314 624.905C191.362 624.586 189.742 625.773 188.338 628.406C182.738 638.911 175.851 648.534 166.995 656.535C161.931 661.108 157.055 666.114 150.268 668.328H150.297Z" fill="#C6C7C9"/>
<path d="M666.549 650.994C666.78 654.437 667.215 657.867 667.186 661.31C667.157 667.721 666.158 668.762 660.038 670.05C656.42 670.817 652.89 670.412 649.373 669.428C640.894 667.069 633.24 663.003 625.918 658.214C616.498 652.05 607.57 645.191 598.671 638.304C594.215 634.86 590.612 630.62 588.181 625.556C586.806 622.662 584.708 621.2 581.713 620.636C577.039 619.753 572.886 617.814 569.457 614.457C568.661 610.435 566.925 606.658 568.661 602.259C570.629 597.282 574.377 594.475 578.804 591.986C575.462 589.208 573.248 586.082 573.19 581.597C573.06 568.719 581.944 559.4 595.72 558.228C596.313 559.907 597.109 561.556 597.485 563.292C598.946 569.891 598.888 569.905 592.42 571.714C587.255 573.161 584.144 575.982 582.827 580.468C585.663 580.164 588.268 578.674 591.162 579.093C587.689 585.344 584.477 591.668 586.372 599.148C583.594 599.423 583.739 596.182 581.38 596.023C581.38 601.261 584.1 604.473 588.036 607.136C589.888 608.38 591.726 606.586 593.607 607.845C600.321 612.33 607.729 613.343 615.543 611.419L613.271 616.975C606.717 620.911 599.323 620.419 591.219 620.52C593.202 622.257 594.345 623.414 595.633 624.355C603.736 630.215 612.056 635.496 622.706 634.874C626.222 634.672 629.449 633.601 632.675 632.385C633.63 632.024 634.961 631.749 635.613 632.704C636.38 633.847 635.092 634.556 634.441 635.294C632.01 638.043 628.957 639.939 625.672 641.472C623.805 642.341 623.559 643.325 625.064 644.829C631.199 650.965 637.899 656.087 646.87 657.288C655.291 658.416 659.994 656.55 662.44 650.994C663.785 650.386 665.16 652.542 666.506 650.979L666.549 650.994Z" fill="#A0ACB6"/>
<path d="M218.277 605.992C213.56 597.426 206.469 592.478 196.63 591.595C195.762 591.523 194.431 591.595 194.112 591.103C190.148 584.968 183.26 587.384 177.863 585.532C175.273 584.635 172.784 586.704 170.396 587.833C169.876 588.007 169.398 588.209 169.441 588.889L169.485 588.846C165.752 588.556 165.072 593.389 161.613 593.549C161.772 589.902 162.496 586.4 165.173 583.724C167.662 581.249 168.038 578.442 167.43 575.143C166.721 571.352 166.374 567.503 165.867 563.668C170.093 563.799 172.943 567.112 176.792 568.357C187.847 571.931 198.366 568.834 209.016 566.823C212.084 566.244 215.151 565.448 218.089 564.392C221.026 563.336 221.75 564.305 221.822 567.141C222.184 580.916 228.203 592.333 236.87 602.607C240.719 607.165 244.641 611.665 248.562 616.165C250.125 617.959 250.863 619.985 250.544 622.358C249.676 622.445 248.678 622.285 247.94 622.647C239.996 626.496 231.517 628.811 223.11 631.343C221.778 631.257 220.418 631.343 219.116 631.069C217.438 630.721 216.381 630.2 218.002 628.16C223.139 621.721 223.139 613.777 218.291 606.021L218.277 605.992Z" fill="#8E99A1"/>
<path d="M621.866 204.139C622.401 209.667 621.577 214.905 618.625 219.709C617.004 222.342 618.118 223.123 620.824 222.979C629.246 222.53 634.788 226.668 637.812 234.251C638.839 236.826 640.619 236.797 642.5 236.291C646.928 235.09 650.719 232.529 653.772 229.259C659.806 222.834 666.086 216.395 665.782 206.324C670.861 211.678 673.306 217.683 672.062 225.062C676.243 225.395 678.718 222.429 681.539 220.548C686.879 216.988 692.522 213.675 696.024 208.003C697.528 205.572 698.498 202.895 698.585 199.943C698.628 198.713 697.861 196.875 699.612 196.441C700.914 196.123 701.913 197.613 703.085 198.206C704.937 199.133 703.418 203.633 707.064 202.128C708.916 201.361 710.392 199.625 711.998 198.279C719.711 191.811 723.646 183.693 722.807 173.492C727.568 175.995 729.781 180.524 728.769 185.734C728.002 189.684 726.077 193.113 723.299 195.906C709.263 210.072 695.271 224.324 677.69 234.294C676.026 235.235 675.665 236.682 674.912 238.129C670.325 246.868 663.959 253.756 654.38 257.113C655.378 254.147 653.526 252.208 651.688 250.558C645.162 244.727 637.566 240.762 629.231 238.1C621.707 235.698 614.009 235.307 606.21 235.524C604.705 235.567 602.26 235.973 604.227 233.021C609.842 224.57 612.634 215.324 612.012 205.123C612.056 204.949 612.099 204.776 612.128 204.588C615.514 207.221 618.625 204.038 621.881 204.125L621.866 204.139Z" fill="#A0ACB6"/>
<path d="M595.748 558.228C581.973 559.415 573.088 568.719 573.218 581.597C573.262 586.082 575.49 589.208 578.833 591.986C574.405 594.475 570.657 597.282 568.689 602.26C566.953 606.658 568.689 610.435 569.485 614.458C565.824 612.302 563.972 608.655 562.019 605.168C560.514 602.477 558.691 600.914 555.406 600.943C550.776 600.972 547.404 598.946 546.232 594.142C550.327 586.531 555.334 579.47 558.387 571.222C563.538 557.273 566.085 542.456 564.84 527.755C570.86 530.808 576.561 533.948 582.769 535.959C586.314 537.117 589.728 538.81 593.606 538.405C595.893 538.173 597.137 539.692 598.483 541.082C603.301 546.898 607.222 553.12 607.425 561.006C606.007 560.268 604.589 559.501 603.156 558.778C600.769 557.563 598.367 556.419 595.748 558.228Z" fill="#8E99A1"/>
<path d="M621.867 204.139C618.597 204.053 615.5 207.236 612.114 204.602C611.449 200.493 612.592 196.803 614.69 193.33C621.881 187.818 629.796 186.139 638.319 189.539C641.444 190.784 643.224 189.076 645.047 187.456C651.602 181.624 659.025 177.732 667.779 176.517C671.816 175.952 675.897 175.721 679.89 176.415C683.971 177.124 687.646 176.415 691.148 174.447C699.222 169.904 707.571 168.037 716.542 171.655C717.512 174.201 720.637 175.185 721.173 178.239C712.635 175.099 705.053 179.628 697.095 181.19C695.431 181.509 695.272 182.42 696.01 183.766C696.835 185.285 696.863 186.949 696.69 188.599C696.516 190.263 696.154 192.101 694.49 192.752C693 193.345 692.262 191.58 691.235 190.798C685.838 186.617 679.673 185.256 673.017 186.096C665.667 187.022 658.823 189.684 652.21 192.925C649.576 194.213 647.522 195.704 651.732 197.961C653.064 198.67 653.961 200.334 654.858 201.68C656.044 203.474 657.101 205.89 655.697 207.525C654.322 209.131 652.543 206.918 650.994 206.339C641.488 202.823 631.808 201.94 621.881 204.125L621.867 204.139Z" fill="#F6F6F7"/>
<path d="M595.748 558.228C598.367 556.42 600.769 557.563 603.157 558.778C604.589 559.502 605.993 560.269 607.425 561.007C607.512 565.999 610.131 568.473 614.675 570.716C624.514 575.592 630.418 583.999 631.937 594.982C632.502 599.105 634.339 601.536 637.841 603.75C655.161 614.704 664.972 630.389 666.563 650.994C665.218 652.571 663.843 650.401 662.497 651.008C660.906 639.317 656.145 629.376 647.058 621.534C639.114 614.689 624.268 608.67 613.344 616.976C614.096 615.123 614.863 613.271 615.615 611.419C617.685 609.263 619.479 606.702 621.895 605.053C625.817 602.39 625.426 599.337 623.241 596.212C615.5 585.113 606.051 577.025 591.219 579.079C588.325 578.66 585.721 580.15 582.885 580.454C584.187 575.968 587.313 573.147 592.478 571.7C598.946 569.877 598.99 569.877 597.543 563.278C597.166 561.542 596.371 559.907 595.777 558.214L595.748 558.228Z" fill="#F6F6F7"/>
<path d="M218.276 605.993C223.124 613.763 223.109 621.707 217.987 628.132C216.366 630.172 217.423 630.693 219.101 631.04C220.389 631.315 221.763 631.243 223.095 631.315C217.321 640.894 208.828 644.757 197.946 642.703C195.226 642.182 194.546 643.527 193.417 645.076C183.592 658.417 170.57 666.954 154.407 670.514C153.148 670.788 149.328 673.321 150.297 668.329C157.084 666.129 161.96 661.123 167.024 656.536C175.88 648.534 182.768 638.912 188.367 628.407C189.771 625.773 191.377 624.601 194.343 624.905C199.191 625.426 203.213 623.443 206.368 619.971C210.492 615.442 214.326 610.652 218.291 605.979L218.276 605.993Z" fill="#A0ACB6"/>
<path d="M0.60728 218.117C1.6491 216.901 2.90797 216.25 4.55752 216.496C5.20866 229.62 17.4501 237.666 28.9246 232.326C32.0211 230.894 33.005 231.834 33.3234 234.714C34.0469 241.283 37.1289 246.593 42.0052 250.92C44.6676 253.278 47.605 254.913 51.3527 254.016C55.3463 253.061 56.1566 249.719 56.5473 246.449C57.0393 242.325 58.8046 239.055 61.8577 236.392C62.8127 235.553 63.6375 233.672 65.0121 234.395C66.6038 235.22 65.6343 237 65.3449 238.418C63.3047 248.793 68.152 255.102 78.5268 255.55C78.5558 257.229 78.0927 258.762 77.3693 260.267C74.3017 266.634 71.6971 273.087 73.7952 280.409C73.9544 280.959 73.3467 281.726 73.0862 282.392C67.7035 276.43 62.6535 270.295 62.3931 261.7C62.3352 259.616 61.0474 260.397 59.9043 260.499C52.8286 261.121 45.8397 260.803 38.8942 259.168C31.7462 257.475 27.2461 253.105 25.5965 246.058C25.0611 243.786 24.2364 242.904 21.9646 242.484C18.4485 241.818 15.0191 240.69 11.8937 238.751C4.22472 233.976 -1.83811 228.376 0.621749 218.102L0.60728 218.117Z" fill="#A0ACB6"/>
<path d="M161.598 593.534C165.056 593.375 165.736 588.542 169.47 588.831C167.169 593.331 163.986 597.542 164.926 603.084C165.519 606.6 166.127 609.566 171.119 608.062C173.68 607.295 176.69 607.57 180.539 608.568C178.34 609.653 177.153 610.406 175.851 610.84C165.375 614.356 160.99 622.445 159.732 632.646C159.138 637.377 158.285 642.123 158.646 646.956C159.211 654.799 155.68 660.167 148.517 663.264C147.693 663.611 146.926 664.103 146.13 664.537C144.437 663.568 142.715 662.67 142.599 660.312C142.049 648.837 142.31 637.508 147.548 626.887C149.834 622.242 152.858 618.205 156.838 614.891C157.85 614.052 158.69 613.618 158.067 611.722C155.926 605.124 157.995 599.134 161.598 593.548V593.534Z" fill="#F6F6F7"/>
<path d="M611.998 205.137C612.621 215.338 609.828 224.584 604.214 233.035C602.246 236.001 604.706 235.581 606.196 235.538C613.995 235.306 621.693 235.712 629.217 238.114C637.552 240.776 645.148 244.741 651.674 250.572C653.526 252.222 655.379 254.161 654.366 257.127C653.179 257.966 651.371 257.59 650.517 259.08C647.276 257.865 644.034 256.649 640.793 255.434C626.598 250.138 612.288 245.262 597.297 242.672C596.429 242.527 595.604 242.093 594.736 241.861C591.408 240.993 591.162 239.691 593.578 237.144C602.289 227.985 607.773 216.901 611.984 205.123L611.998 205.137Z" fill="#8E99A1"/>
<path d="M73.0715 282.42C73.332 281.755 73.9397 280.988 73.7806 280.438C71.6825 273.116 74.287 266.663 77.3546 260.296C78.0925 258.777 78.5411 257.257 78.5122 255.579C83.2293 249.502 87.686 243.222 93.4884 238.042C95.6878 236.088 98.5672 234.887 100.072 232.152C104.022 232.239 107.206 233.86 109.651 236.739C91.4192 250.095 76.6166 265.389 76.935 290.002C74.6053 288.006 74.9816 284.62 73.0715 282.406V282.42Z" fill="#8E99A1"/>
<path d="M0.594063 216.38C0.507245 216.858 0.434896 217.321 0.348077 217.798C-0.158363 217.22 -0.114954 216.742 0.594063 216.38Z" fill="#A0ACB6"/>
<path d="M541.182 413.14C547.477 424.788 543.28 434.845 536.711 444.612C534.222 448.316 532.602 452.267 534.642 456.81C535.597 458.937 534.237 459.169 532.674 458.865C520.505 456.564 509.494 467.272 511.013 478.761C511.172 479.947 511.027 481.163 511.071 482.364C511.143 484.259 510.622 485.286 508.452 484.476C502.447 482.219 497.281 484.013 491.826 486.979C481.451 492.637 471.265 498.801 459.819 502.288C446.189 506.441 432.732 506.76 419.521 500.726C418.768 500.378 417.755 500.263 417.408 498.772C426.452 499.221 434.989 497.427 442.918 493.317C449.546 489.873 456.419 486.603 460.21 479.571C460.803 478.486 462.163 477.14 460.846 475.953C459.805 475.027 458.69 476.417 457.62 476.807C454.567 477.921 451.586 479.73 448.185 478.081C447.144 477.574 445.668 477.314 445.552 475.91C445.393 474.217 447.115 474.347 448.099 473.913C455.058 470.875 460.065 465.969 462.279 458.648C463.842 453.496 463.552 453.149 458.531 454.712C448.808 457.736 424.469 448.721 419.81 436.885C449.444 443.107 467.329 429.448 477.921 401.376C480.54 421.692 492.029 432.081 510.535 432.602C524.195 432.978 536.075 427.581 541.197 413.126L541.182 413.14Z" fill="#A0ACB6"/>
<path d="M305.456 335.742C295.486 330.026 286.298 323.428 284.417 311.056C282.897 301.101 286.862 292.202 291.55 283.723C292.968 281.176 293.996 278.196 297.005 276.749C298.423 276.069 298.264 274.52 298.351 273.16C299.06 262.236 301.679 251.832 307.177 242.311C312.329 233.397 319.607 227.711 330.488 228.391C333.946 228.608 335.828 227.87 337.709 224.325C341.341 217.524 348.46 215.31 355.695 214.977C369.528 214.355 381.682 218.551 391.232 229.027C396.514 234.83 396.702 235.061 402.793 230.069C407.612 226.119 413.313 224.715 419.014 224.035C449.589 220.36 472.436 238.983 477.298 265.911C478.485 272.437 478.297 279.209 476.618 285.85C475.649 273.102 469.875 262.539 462.192 252.83C453.524 241.877 441.5 237.434 428.217 235.64C425.41 235.264 422.516 235.539 419.665 235.539C416.308 235.539 413.53 236.971 411.287 239.33C408.046 242.73 408.321 243.627 412.647 244.973C422.313 247.939 427.841 255.999 427.233 266.099C427.146 267.647 426.784 269.065 426.046 270.396C425.554 271.279 425.207 272.48 423.861 272.292C422.762 272.133 422.588 271.048 422.429 270.223C420.649 260.499 412.836 258.85 405.152 258.3C392.563 257.403 381.103 260.861 371.727 269.832C371.018 270.512 370.309 271.814 369.166 271.004C368.269 270.368 368.558 269.051 368.703 268.038C369.774 260.615 373.709 254.972 379.758 250.747C385.531 246.709 385.994 242.586 381.436 237.029C371.814 225.294 350.76 227.045 347.418 242.861C346.926 245.19 345.768 245.624 343.54 244.857C340.704 243.888 337.723 243.512 334.67 243.685C326.697 244.134 319.65 251.036 318.999 259.009C318.753 262.018 319.26 263.625 322.978 263.711C329.128 263.856 334.424 266.099 337 272.35C337.434 273.406 338.418 274.549 337.376 275.663C336.464 276.633 335.422 275.692 334.467 275.417C317.813 270.744 299.928 282.594 297.324 299.539C295.486 311.462 298.756 322.039 304.197 332.284C304.761 333.34 305.152 334.468 305.629 335.554L305.427 335.756L305.456 335.742Z" fill="#F6F6F7"/>
<path d="M527.755 298.265C537.291 299.654 545.495 316.83 539.982 326.597C537.942 330.229 535.641 333.846 535.019 338.115C533.673 347.361 533.384 351.89 545.828 358.647C536.813 360.818 529.81 364.609 527.856 374.52C523.183 369.022 517.771 367.112 511.448 367.083C505.891 367.054 501.362 369.254 498.208 373.522C490.365 384.128 479.527 387.239 466.881 386.559C472.828 383.434 478.457 380.019 483.044 374.998C490.438 366.909 494.721 357.649 494.779 346.652C494.793 343.396 495.386 342.021 499.163 341.732C504.459 341.327 509.769 340.705 514.964 338.824C530.172 333.354 532.573 322.835 530.302 309.074C529.708 305.442 527.784 302.085 527.741 298.25L527.755 298.265Z" fill="#A0ACB6"/>
<path d="M241.5 417.365C234.974 417.901 229.49 418.233 224.599 414.196C212.633 404.328 204.79 391.841 202.996 376.503C200.883 358.43 209.594 345.378 224.86 336.421C231.762 332.37 239.214 329.65 247.216 328.579C254.277 327.638 260.586 330.431 267.155 331.979L267.285 333.137C262.698 335.177 258.039 337.073 253.539 339.301C240.516 345.725 228.998 353.886 223.123 367.879C215.86 385.17 220.2 400.797 235.148 412.156C237.116 413.646 238.982 415.282 241.5 417.365V417.365Z" fill="#F6F6F7"/>
<path d="M421.793 323.051C417.799 322.4 414.182 320.519 410.159 319.781C395.255 317.061 372.408 325.931 364.478 337.695C358.546 346.507 359.081 356.071 360.846 365.838C360.977 366.562 361.063 367.3 361.136 368.023C361.136 368.153 361.006 368.284 360.731 368.848C354.002 364.478 349.603 358.517 347.983 350.79C343.729 330.561 360.224 308.263 380.887 305.861C386.111 305.254 391.32 304.979 396.572 305.022C410.261 305.138 417.047 309.927 421.865 322.979L421.793 323.051V323.051Z" fill="#F6F6F7"/>
<path d="M383.376 401.434C392.246 411.838 401.897 411.49 411.838 399.075C416.164 408.047 423.877 406.513 431.314 405.211C436.335 404.328 438.896 400.638 439.808 395.849C440.69 391.16 441.834 386.516 441.703 380.858C446.724 385.517 448.055 391.059 447.679 396.543C446.97 407.034 441.124 413.111 430.894 415.339C427.234 416.135 423.804 415.31 420.621 413.473C418.783 412.416 417.322 411.823 415.701 414.109C412.648 418.421 408.076 419.897 403.026 419.362C394.98 418.523 387.818 415.962 384.041 407.902C383.072 405.833 382.681 403.749 383.361 401.434H383.376Z" fill="#A0ACB6"/>
<path d="M421.865 322.979L422.227 323.225C422.082 323.167 421.938 323.109 421.793 323.066L421.865 322.993V322.979Z" fill="#F6F6F7"/>
<path d="M237.202 230.055L237.477 230.532C237.318 230.445 237.159 230.344 236.985 230.257L237.188 230.055H237.202Z" fill="#F6F6F7"/>
<path d="M306.469 336.523C306.136 336.263 305.803 336.002 305.456 335.742L305.659 335.539C305.919 335.872 306.194 336.205 306.454 336.523H306.469Z" fill="#F6F6F7"/>
<path d="M306.469 336.523L306.802 336.725L306.469 336.508V336.523Z" fill="#F6F6F7"/>
<path d="M242.469 500.566L242.15 500.393L242.483 500.552L242.469 500.566Z" fill="#A0ACB6"/>
<path d="M321.779 413.14L321.446 412.966L321.794 413.125H321.779V413.14Z" fill="#A0ACB6"/>
<path d="M373.233 70.3669C369.239 69.2093 366.114 69.7592 363.306 71.2206C360.427 72.711 359.342 71.9152 358.705 68.9778C356.216 57.4454 358.474 46.9693 365.332 37.4482C366.027 36.4788 366.721 35.4803 367.503 34.5832C369.094 32.7456 368.501 31.8195 366.389 31.0526C360.109 28.7809 356.969 21.8499 359.313 15.6134C360.774 11.721 364.826 9.47822 368.689 10.4332C372.495 11.3593 376.242 16.3224 375.91 19.8241C375.736 21.6907 374.549 21.8064 373.102 21.9511C368.718 22.4142 368.718 22.4576 365.723 24.3965C375.273 25.7277 383.116 29.3596 387.992 37.8534C390.35 41.9483 389.96 42.8454 385.329 43.6123C381.408 44.249 377.849 45.5947 375.548 49.3568C377.834 50.7893 379.918 48.9951 382.117 49.3858C389.381 50.6446 393.519 55.1737 395.516 61.8153C397.368 67.9794 398.627 74.3171 400.363 80.5102C400.928 82.5649 400.306 83.0713 398.439 83.4765C386.444 86.0666 375.316 90.8126 364.956 97.3964C361.498 99.5958 361.917 96.0362 361.642 94.7629C359.732 85.7772 363.581 77.0664 371.453 71.8717C371.916 71.5679 372.307 71.1627 373.233 70.3814V70.3669Z" fill="#C6C7C9"/>
<path d="M100.088 232.153C98.583 234.873 95.7035 236.088 93.5041 238.042C87.6873 243.207 83.245 249.487 78.5279 255.579C68.1531 255.116 63.3057 248.822 65.346 238.447C65.6209 237.029 66.5904 235.249 65.0132 234.424C63.6385 233.715 62.8282 235.582 61.8588 236.421C58.8056 239.084 57.0403 242.354 56.5484 246.478C56.1577 249.762 55.3474 253.09 51.3537 254.045C47.6061 254.942 44.6687 253.293 42.0063 250.949C37.13 246.622 34.0479 241.312 33.3244 234.743C33.0061 231.863 32.0222 230.908 28.9256 232.355C17.4367 237.695 5.20973 229.664 4.55859 216.525C16.7132 211.012 28.4192 213.096 39.8792 218.681C40.6172 219.043 41.5433 219.824 41.6445 220.519C41.8037 221.575 40.487 221.633 39.7201 221.966C36.6091 223.369 33.4981 224.744 32.7312 229.056C38.6782 228.362 44.1623 227.32 49.5595 225.569C59.8619 222.226 69.8605 222.906 79.7 228.651C76.6903 231.299 74.9828 234.453 74.9105 238.317C74.896 239.344 74.7224 240.675 75.8365 241.124C77.2256 241.688 77.3993 240.111 77.9925 239.387C83.028 233.339 89.3657 230.329 97.3241 231.053C98.3804 231.154 99.4367 231.125 100.088 232.167V232.153Z" fill="#C6C7C9"/>
<path d="M122.674 230.589C122.472 234.395 119.462 234.062 116.062 234.988C118.116 232.08 121.025 232.254 122.66 230.561V230.589H122.674Z" fill="#A0ACB6"/>
<path d="M530.158 221.011L530.389 221.59C530.201 221.518 529.999 221.431 529.811 221.358C529.926 221.243 530.042 221.113 530.158 221.011V221.011Z" fill="#C6C7C9"/>
<path d="M147.968 470.961C147.852 471.063 147.751 471.164 147.635 471.236C147.606 471.251 147.418 471.048 147.432 471.034C147.505 470.918 147.621 470.817 147.722 470.715L147.968 470.976V470.961Z" fill="#C6C7C9"/>
<path d="M169.426 588.876C169.382 588.196 169.874 587.993 170.381 587.819C170.062 588.167 169.744 588.528 169.426 588.876Z" fill="#F6F6F7"/>
<path d="M613.329 616.976C624.268 608.67 639.1 614.689 647.044 621.534C656.131 629.376 660.906 639.317 662.483 651.008C660.037 656.565 655.335 658.431 646.913 657.303C637.957 656.102 631.257 650.979 625.107 644.844C623.603 643.339 623.849 642.355 625.715 641.487C629 639.953 632.053 638.058 634.484 635.309C635.135 634.571 636.423 633.862 635.656 632.719C635.019 631.764 633.673 632.039 632.718 632.4C629.477 633.616 626.265 634.687 622.749 634.889C612.099 635.511 603.779 630.23 595.676 624.37C594.388 623.429 593.245 622.272 591.263 620.535C599.351 620.434 606.76 620.926 613.315 616.99L613.329 616.976Z" fill="#C6C7C9"/>
<path d="M591.191 579.094C606.022 577.025 615.471 585.128 623.212 596.226C625.383 599.351 625.774 602.39 621.867 605.067C619.45 606.716 617.656 609.278 615.587 611.434C607.759 613.373 600.365 612.345 593.651 607.86C591.755 606.601 589.918 608.395 588.08 607.151C584.144 604.488 581.424 601.276 581.424 596.038C583.782 596.211 583.638 599.438 586.416 599.163C584.52 591.682 587.733 585.359 591.205 579.108L591.191 579.094ZM587.284 601.695C587.313 601.594 587.385 601.493 587.371 601.406C587.371 601.377 587.212 601.348 587.125 601.305C587.096 601.406 587.024 601.507 587.038 601.594C587.038 601.638 587.197 601.652 587.284 601.695Z" fill="#C6C7C9"/>
<path d="M587.284 601.695C587.197 601.666 587.038 601.638 587.038 601.594C587.038 601.493 587.096 601.406 587.125 601.305C587.212 601.334 587.371 601.363 587.371 601.406C587.371 601.507 587.313 601.594 587.284 601.695Z" fill="#A0ACB6"/>
</g>
<defs>
<clipPath id="clip0_210_423">
<rect width="729" height="671.396" fill="white"/>
</clipPath>
</defs>
</svg>
